<?xml version="1.0" encoding="utf-8"?>
<!-- Generator: Adobe Illustrator 23.0.4, SVG Export Plug-In . SVG Version: 6.00 Build 0)  -->
<svg version="1.1" xmlns="http://www.w3.org/2000/svg" xmlns:xlink="http://www.w3.org/1999/xlink" x="0px" y="0px"
	 viewBox="0 0 529.4 148.2" style="enable-background:new 0 0 529.4 148.2;" xml:space="preserve">
<style type="text/css">
	.st0{fill:url(#SVGID_1_);}
	.st1{fill:url(#SVGID_2_);}
	.st2{fill:url(#SVGID_3_);}
	.st3{fill:#0E0E0E;}
	.st4{fill:#FFFFFF;}
	.st5{fill:url(#SVGID_4_);}
	.st6{fill:url(#SVGID_5_);}
	.st7{fill:url(#SVGID_6_);}
	.st8{fill:#060606;}
</style>
<g id="back_1_">
</g>
<g id="Layer_1">
	<g>
		<g id="Layer_1-2_13_">
			
				<linearGradient id="SVGID_1_" gradientUnits="userSpaceOnUse" x1="76.2234" y1="195.2813" x2="76.2234" y2="368.9432" gradientTransform="matrix(1 0 0 1 0 -202)">
				<stop  offset="0" style="stop-color:#FFA31D"/>
				<stop  offset="3.786427e-02" style="stop-color:#FF9F1A"/>
				<stop  offset="0.225" style="stop-color:#FF930F"/>
				<stop  offset="0.471" style="stop-color:#FF8B09"/>
				<stop  offset="1" style="stop-color:#FF8907"/>
			</linearGradient>
			<path class="st0" d="M149.3,74.1c0-1.2,0-2.3,0-3.5c0.5-13.5-10.4-24.9-24.1-24.9c-13.2,0-24.1,10.7-24.1,24.1v11.8
				c0,4.9-4,9.1-9.1,9.1l0,0c-6.1,0-11.1-4.9-11.1-11.1l0,0V52.8c-0.2-3.9-3.7-6.8-7.4-6.7c-3.7,0.2-6.5,3-6.7,6.7v27.4
				c0,4.4-2.6,8.4-6.7,9.8c-6.8,2.3-13.5-3-13.5-9.5V52.8c-0.2-3.9-3.7-6.8-7.4-6.7c-3.7,0.2-6.5,3-6.7,6.7v27.7
				c0,13.3,10.9,24.2,24.2,24.2c6.5,0,13-2.6,17.4-7.4c5.3,5.3,12.1,7.9,19.5,7.4c11.8-0.9,21.4-11.9,21.4-23.9V70
				c0-5.3,4.4-9.8,9.8-9.8c5.3,0,9.8,4.4,9.8,9.8l0,0c0,8.6-0.2,16.3-3,24.6c-2.8,7.5-7.2,14.4-13,20.4
				C108,125.9,93.5,132.4,78,132.9c-6.5,0.2-13-0.5-19-2.3c-20.2-5.8-35.8-22.1-40.6-42.5c-4.2-17.9,0-36.9,11.4-51.4
				c10-12.5,24.6-20.2,40.4-21.8c1.9-0.2,3.9-0.2,5.8-0.2c14.9,0,29.1,5.4,40,15.6l0,0c2.8,2.6,7.4,2.5,9.8-0.4
				c2.6-2.8,2.5-7.4-0.4-9.8C112.1,7.7,94.4,0.9,76.1,0.9c-2.3,0-4.7,0.2-7,0.4C49.4,3.2,31.5,12.8,19.2,28.1C5,46-0.3,69.2,5,91.5
				c6,25.5,25.1,45.8,50.2,53c6.8,1.9,13.9,2.8,20.9,2.8c0.7,0,1.8,0,2.5,0c19-0.7,36.9-8.6,50.4-22.1c6.5-6.7,11.8-14.2,15.4-22.8
				C148.3,92.9,150,83.6,149.3,74.1z"/>
			<path class="st3" d="M247.4,49.5c0.4-1.6,1.8-2.6,3.5-2.6h8.8c0.7,0,1.4,0.5,1.6,1.4c0,0.2,0,0.4-0.2,0.5L245,104.3
				c-0.2,0.5-0.7,0.9-1.4,0.9h-10c-0.5,0-1.2-0.4-1.4-0.9l-10.7-35.1c-0.2-0.5-0.4-1.2-0.5-1.9c-0.2-0.7-0.4-1.4-0.5-2.1
				c-0.2,0.7-0.4,1.6-0.5,2.1c-0.2,0.5-0.4,1.4-0.5,1.9l-10.9,35.3c-0.2,0.5-0.7,0.9-1.4,0.9h-10c-0.5,0-1.2-0.4-1.4-0.9l-16-55.7
				c-0.2-0.7,0-1.6,0.7-1.8c0.2,0,0.4-0.2,0.5-0.2h9.5c1.8,0,3,1.2,3.5,2.8l9.3,37.4l11.2-37.2c0.4-0.7,0.7-1.6,1.6-2.1
				c0.7-0.5,1.9-0.9,2.8-0.9h4c0.9,0,2.1,0.2,2.8,0.7c0.7,0.5,1.4,1.4,1.6,2.1l11.1,36.7L247.4,49.5z"/>
			<path class="st3" d="M278.5,62.8c2.6,0,5.1,0.4,7.5,1.4c2.3,0.7,4.2,2.1,6,3.9c1.8,1.8,3,3.9,3.9,6c0.9,2.5,1.4,5.3,1.4,8.1
				c0,0.7,0,1.6-0.2,2.3c0,0.4-0.2,0.9-0.4,1.4c-0.2,0.4-0.5,0.5-0.7,0.7c-0.4,0.2-0.9,0.2-1.4,0.2h-24.1c0,2.8,1.2,5.4,3.2,7.5
				c1.9,1.6,4.2,2.5,6.7,2.3c1.4,0,2.5-0.2,3.7-0.5c0.9-0.4,1.9-0.7,2.8-1.2l2.3-1.2c0.7-0.5,1.6-0.7,2.6-0.5c0.7,0,1.4,0.5,1.8,1.1
				l1.2,1.6c1.4,1.8,1.2,4.2-0.5,5.8l0,0c-0.4,0.2-0.7,0.5-1.2,0.7c-1.4,0.9-3,1.8-4.6,2.1c-1.6,0.5-3,0.9-4.7,1.2
				c-1.6,0.2-3,0.4-4.4,0.4c-2.8,0-5.4-0.4-8.3-1.6c-2.5-0.9-4.7-2.5-6.7-4.4c-1.9-1.9-3.5-4.4-4.6-7c-1.2-3-1.8-6.3-1.8-9.7
				c0-2.6,0.4-5.3,1.4-7.7c1.9-4.9,5.8-9,10.5-11.1C272.5,63.4,275.4,62.8,278.5,62.8z M278.7,71.4c-2.1-0.2-4,0.5-5.4,2.1
				c-1.6,1.6-2.3,3.7-2.6,5.8h15.4c0-0.9-0.2-1.9-0.4-2.8c-0.2-0.9-0.5-1.8-1.2-2.5c-0.7-0.7-1.4-1.4-2.3-1.8
				C281,71.6,279.7,71.4,278.7,71.4z"/>
			<path class="st3" d="M351.9,74.8c1.2,0,2.1,0.9,2.1,2.1l0,0v19.3c0,4.7-6.8,7.7-10.5,9c-7.2,2.3-15.1,1.9-22.1-0.9
				c-4.2-1.6-7.7-4-11.1-7c-2.6-2.6-4.7-6-6.3-9.5c-1.6-3.9-2.3-7.7-2.3-11.8c0-4,0.7-8.3,2.1-11.9c1.4-3.7,3.5-6.8,6.1-9.5
				c2.8-2.6,6.1-4.7,9.7-6.1c4-1.6,8.4-2.3,12.8-2.3c2.3,0,4.6,0.2,6.8,0.5c2.1,0.4,4,0.9,6,1.8c2.6,0.9,5.3,2.5,7.5,4.4
				c0.7,0.5,0.9,1.9,0.4,2.6l-3,4.7c-0.4,0.5-0.7,0.9-1.4,1.4c-0.5,0.4-1.2,0.5-1.8,0.4c-0.9,0-1.8-0.4-2.5-0.7
				c-1.2-0.5-2.1-1.2-3-1.8c-0.9-0.4-1.9-0.7-2.8-1.2c-0.9-0.4-2.1-0.5-3-0.5c-1.2-0.2-2.5-0.2-3.7-0.2c-2.3,0-4.7,0.4-6.8,1.4
				c-1.9,0.9-3.9,2.1-5.1,3.9c-1.6,1.8-2.6,3.7-3.2,6c-0.7,2.5-1.2,4.9-1.2,7.5c0,2.8,0.4,5.4,1.4,8.3c0.7,2.3,1.9,4.4,3.7,6.1
				c1.6,1.8,3.2,3,5.3,3.9c2.1,0.9,4.4,1.4,6.8,1.4c2.8,0,5.8-0.4,8.4-1.6c0.4-0.2,0.7-0.5,0.7-1.2v-6.8c0-0.5-0.5-1.2-1.2-1.2l0,0
				h-4.6c-0.7,0-1.4-0.2-1.9-0.7c-0.4-0.4-0.7-1.2-0.7-1.8v-5.4c0-1.2,0.9-2.1,2.1-2.1h16.2C351.9,75.1,351.9,74.8,351.9,74.8z"/>
			<path class="st3" d="M413.7,62.8c2.8,0,6,0.4,8.6,1.6c2.5,0.9,4.7,2.3,6.7,4.2c1.9,1.9,3.5,4.2,4.4,6.7c1.2,2.8,1.6,6,1.6,9
				s-0.5,6.1-1.6,9c-0.9,2.5-2.5,4.7-4.4,6.8c-1.9,1.9-4.2,3.5-6.7,4.2c-5.4,2.1-11.6,2.1-17.4,0c-2.5-0.9-4.7-2.5-6.7-4.2
				c-1.9-1.9-3.5-4.2-4.4-6.8c-1.2-2.8-1.6-6-1.6-9s0.5-6.1,1.6-9c0.9-2.5,2.5-4.7,4.4-6.7c1.9-1.9,4.2-3.2,6.8-4.2
				C407.7,63.4,410.9,62.8,413.7,62.8z M413.7,96.6c2.5,0.2,4.9-0.9,6.3-3c1.6-2.8,2.3-6,2.1-9.1c0.2-3.2-0.4-6.3-2.1-9.1
				c-1.4-2.1-3.9-3.2-6.3-3c-2.5-0.2-4.9,0.9-6.5,3c-1.6,2.8-2.3,6-2.1,9.1c-0.2,3.2,0.5,6.3,2.1,9.1
				C408.8,95.5,411.2,96.7,413.7,96.6z"/>
			<path class="st3" d="M451.3,63.5c1.2,0,2.1,0.9,2.1,1.9l0,0v24.4c-0.2,1.8,0.4,3.5,1.4,4.7c0.9,1.2,2.5,1.8,4.2,1.8
				c1.4,0,2.6-0.2,3.9-0.7c1.4-0.5,2.5-1.4,3.5-2.3V65.8c0-1.2,0.9-2.1,2.1-2.1h8.4c1.2,0,2.1,0.9,2.1,2.1v37.6
				c0,1.2-0.9,2.1-2.1,2.1h-5.8c-1.4,0.2-2.6-0.7-3-2.1l-0.7-2.5c-0.7,0.7-1.6,1.6-2.5,2.1c-0.7,0.5-1.8,1.2-2.6,1.6
				c-0.9,0.4-2.1,0.7-3,1.2c-1.2,0.2-2.5,0.4-3.7,0.4c-2.1,0-4.2-0.4-6.1-1.2c-1.8-0.7-3.2-1.9-4.4-3.2c-1.2-1.6-2.1-3.2-2.6-4.9
				c-0.5-2.1-0.9-4.2-0.9-6.3V66.2c0-1.2,0.9-2.1,2.1-2.1l0,0h8.1v-0.5L451.3,63.5L451.3,63.5z"/>
			<path class="st3" d="M486.6,116V65.7c0-1.2,0.9-2.1,2.1-2.1l0,0h5.8c0.7,0,1.4,0.2,1.9,0.5c0.5,0.4,0.9,0.9,1.2,1.6l0.9,3
				c0.7-0.9,1.8-1.8,2.6-2.5c2.8-2.3,6.5-3.7,10.4-3.5c2.1,0,4.2,0.4,6,1.6c1.9,0.9,3.5,2.5,4.7,4.2c1.6,2.1,2.5,4.2,3,6.7
				c0.7,2.8,1.2,6,1.2,9c0,2.8-0.4,6-1.4,8.6c-0.7,2.5-2.1,4.7-3.7,6.8c-1.6,1.9-3.5,3.5-5.8,4.6c-2.3,1.2-4.7,1.8-7.2,1.8
				c-1.9,0-3.7-0.2-5.4-0.9c-1.6-0.5-2.8-1.6-4-2.5v13.9c0,1.2-0.9,2.1-2.1,2.1l0,0h-8.4C487.4,118,486.6,117.1,486.6,116z
				 M506.7,72.3c-0.7,0-1.8,0-2.5,0.2c-1.1,0.2-1.6,0.5-2.8,1.1c-0.4,0.4-0.7,0.5-1.1,0.9c-0.5,0.5-1.1,1.1-1.4,1.6v17.6
				c0.7,0.9,1.9,1.8,3,2.1c1.2,0.4,2.3,0.5,3.5,0.5c1.2,0,2.1-0.2,3.2-0.7c0.9-0.5,1.9-1.4,2.5-2.1c0.7-1.2,1.4-2.5,1.8-4
				c0.4-1.9,0.5-3.9,0.5-6c0-1.9-0.2-3.7-0.4-5.4c-0.2-1.4-0.7-2.5-1.4-3.7c-0.5-0.7-1.2-1.6-2.1-1.9
				C508.7,72.5,507.8,72.3,506.7,72.3z"/>
			<path class="st3" d="M386.8,73.9c-0.2,0.2-0.2,0.2-0.4,0.4c-1.4,0.9-3.2,0.2-4.9,0.2c-1.6-0.2-3.2,0.4-4.4,1.6
				c-1.4,1.2-2.1,2.6-2.5,4.4s-0.4,3.5-0.4,5.1v17.7c0,1.2-0.9,2.1-2.1,2.1l0,0h-9c-0.7,0-1.2-0.5-1.2-1.2v-4V65.8
				c0-1.2,0.9-2.1,2.1-2.1h5.3c0.5,0,1.4,0,1.9,0.4c0.9,0.5,1.8,1.8,1.8,2.8c0,1.2,0.2,2.3,0.5,3.5c1.9-3.2,4.7-5.4,8.3-6.8
				c2.6-0.9,5.8-0.7,8.4,0.5c0.9,0.5,1.4,1.8,0.7,2.6c0,0,0,0.2-0.2,0.2L386.8,73.9z"/>
		</g>
	</g>
</g>
</svg>
